HIERARCHY
ROOT Hips
{
	OFFSET -0.001795 -0.223333 0.028219
	CHANNELS 6 Xposition Yposition Zposition Zrotation Yrotation Xrotation 
	JOINT LeftUpLeg
	{
		OFFSET 0.069520 -0.091406 -0.006815
		CHANNELS 3 Zrotation Yrotation Xrotation
		JOINT LeftLeg
		{
			OFFSET 0.034277 -0.375199 -0.004496
			CHANNELS 3 Zrotation Yrotation Xrotation
			JOINT LeftFoot
			{
				OFFSET -0.013596 -0.397961 -0.043693
				CHANNELS 3 Zrotation Yrotation Xrotation
				JOINT LeftToe
				{
					OFFSET 0.026358 -0.055791 0.119288
					CHANNELS 3 Zrotation Yrotation Xrotation
					End Site
					{
						OFFSET 0.000000 0.000000 0.000000
					}
				}
			}
		}
	}
	JOINT RightUpLeg
	{
		OFFSET -0.067670 -0.090522 -0.004320
		CHANNELS 3 Zrotation Yrotation Xrotation
		JOINT RightLeg
		{
			OFFSET -0.038290 -0.382569 -0.008850
			CHANNELS 3 Zrotation Yrotation Xrotation
			JOINT RightFoot
			{
				OFFSET 0.015774 -0.398415 -0.042312
				CHANNELS 3 Zrotation Yrotation Xrotation
				JOINT RightToe
				{
					OFFSET -0.025372 -0.048144 0.123348
					CHANNELS 3 Zrotation Yrotation Xrotation
					End Site
					{
						OFFSET 0.000000 0.000000 0.000000
					}
				}
			}
		}
	}
	JOINT Spine
	{
		OFFSET -0.002533 0.108963 -0.026696
		CHANNELS 3 Zrotation Yrotation Xrotation
		JOINT Spine1
		{
			OFFSET 0.005487 0.135180 0.001092
			CHANNELS 3 Zrotation Yrotation Xrotation
			JOINT Spine2
			{
				OFFSET 0.001457 0.052922 0.025425
				CHANNELS 3 Zrotation Yrotation Xrotation
				JOINT Neck
				{
					OFFSET -0.002778 0.213870 -0.042857
					CHANNELS 3 Zrotation Yrotation Xrotation
					JOINT Head
					{
						OFFSET 0.005152 0.064970 0.051349
						CHANNELS 3 Zrotation Yrotation Xrotation
						End Site
						{
							OFFSET 0.000000 0.000000 0.000000
						}
					}
				}
				JOINT LeftShoulder
				{
					OFFSET 0.078845 0.121749 -0.034090
					CHANNELS 3 Zrotation Yrotation Xrotation
					JOINT LeftArm
					{
						OFFSET 0.090977 0.030469 -0.008868
						CHANNELS 3 Zrotation Yrotation Xrotation
						JOINT LeftForeArm
						{
							OFFSET 0.259612 -0.012772 -0.027456
							CHANNELS 3 Zrotation Yrotation Xrotation
							JOINT LeftHand
							{
								OFFSET 0.249234 0.008986 -0.001171
								CHANNELS 3 Zrotation Yrotation Xrotation
								End Site
								{
									OFFSET 0.000000 0.000000 0.000000
								}
							}
						}
					}
				}
				JOINT RightShoulder
				{
					OFFSET -0.081759 0.118833 -0.038615
					CHANNELS 3 Zrotation Yrotation Xrotation
					JOINT RightArm
					{
						OFFSET -0.096012 0.032551 -0.009143
						CHANNELS 3 Zrotation Yrotation Xrotation
						JOINT RightForeArm
						{
							OFFSET -0.253742 -0.013329 -0.021401
							CHANNELS 3 Zrotation Yrotation Xrotation
							JOINT RightHand
							{
								OFFSET -0.255298 0.007772 -0.005559
								CHANNELS 3 Zrotation Yrotation Xrotation
								End Site
								{
									OFFSET 0.000000 0.000000 0.000000
								}
							}
						}
					}
				}
			}
		}
	}
}
MOTION
Frames: 7
Frame Time: 0.050000
0.000000 0.949174 0.000000 0.064579 -20.335639 5.781475 0.586464 -1.015540 -21.500737 -2.585107 0.594826 9.164200 3.872155 8.493141 9.405256 0.000000 0.000000 0.000000 -3.787413 0.624123 -5.396977 5.561283 -0.014896 12.745916 -7.186222 -18.314424 7.061789 0.000000 0.000000 0.000000 0.258568 0.413797 29.171578 -8.426665 2.308036 -23.002094 0.503435 14.359068 28.183419 13.040776 -5.901940 -23.727910 0.000000 0.000000 0.000000 -10.370804 -14.623536 5.740628 -38.585533 -10.960078 -3.170362 -44.205434 -78.757144 40.974890 0.000000 0.000000 0.000000 23.313131 11.941485 6.883304 48.921861 34.145583 6.524510 10.125765 48.059436 7.625878 0.000000 0.000000 0.000000 
-0.000656 0.948975 0.009626 -0.505410 -19.725189 6.503692 1.441312 -0.866970 -20.640072 -3.252204 0.678162 7.667112 3.359716 7.598118 8.613984 0.000000 0.000000 0.000000 -3.316575 0.629198 -5.711373 5.240355 0.036459 13.091542 -6.928543 -18.186124 8.284727 0.000000 0.000000 0.000000 0.176026 0.368517 29.092242 -7.280417 2.008752 -22.633546 -0.052837 14.314611 28.072374 13.718747 -6.207373 -24.039741 0.000000 0.000000 0.000000 -11.962959 -14.154799 5.569036 -37.440947 -11.314343 -2.968176 -51.675106 -79.449248 47.886453 0.000000 0.000000 0.000000 22.704024 11.418391 6.578501 49.445720 34.621489 6.906595 10.937122 50.466578 8.563479 0.000000 0.000000 0.000000 
-0.001103 0.949471 0.018824 -0.115120 -17.671017 6.315179 0.249780 -1.170620 -19.803173 -2.195491 0.388507 6.961918 2.233445 5.731787 8.278380 0.000000 0.000000 0.000000 -4.109641 0.639772 -5.603781 6.089168 -0.157901 13.428778 -7.754083 -20.114981 11.363713 0.000000 0.000000 0.000000 0.938068 -0.051567 28.608705 -8.205565 2.324588 -21.430553 -0.526230 13.628118 27.196297 13.718322 -6.707402 -21.357914 0.000000 0.000000 0.000000 -12.902886 -15.951235 6.360528 -35.755980 -12.712883 -2.429444 -48.443707 -80.800788 45.724945 0.000000 0.000000 0.000000 21.367245 10.962452 6.328553 50.522431 35.797562 7.808630 7.557506 49.658406 6.939355 0.000000 0.000000 0.000000 
-0.001856 0.949935 0.027749 0.051873 -17.929438 6.464434 0.041584 -1.192585 -19.320613 -2.347960 0.419733 6.779753 2.393819 5.950602 7.834119 0.000000 0.000000 0.000000 -4.668194 0.772736 -7.208437 6.278282 -0.044086 16.732209 -7.294104 -19.588459 12.244212 0.000000 0.000000 0.000000 0.621555 0.088195 29.092279 -8.340353 2.345710 -21.597717 -1.378584 13.416433 27.569236 14.553091 -7.410005 -21.045911 0.000000 0.000000 0.000000 -12.430784 -17.166527 6.969459 -36.476709 -11.774330 -2.759909 -61.466505 -84.299850 60.800750 0.000000 0.000000 0.000000 23.092937 10.725837 6.300085 47.880336 36.626410 7.340806 8.420702 51.587876 7.626556 0.000000 0.000000 0.000000 
-0.003156 0.950675 0.036694 -0.379923 -17.821136 6.597465 0.299673 -1.139489 -18.899360 -2.230027 0.400994 7.069375 2.392684 5.888694 7.187855 0.000000 0.000000 0.000000 -4.826941 0.914682 -9.108608 6.866493 0.010964 20.380033 -6.768072 -19.285719 15.130957 0.000000 0.000000 0.000000 0.406253 0.127816 29.047761 -8.346395 2.367391 -20.771517 -1.816235 12.746033 26.633183 14.354496 -7.585370 -19.950658 0.000000 0.000000 0.000000 -12.882870 -17.251814 7.133532 -37.487519 -12.746692 -2.510787 -68.596087 -85.933646 69.533219 0.000000 0.000000 0.000000 23.728224 11.214725 6.448301 45.765650 37.314649 7.166635 5.523436 52.315482 6.167133 0.000000 0.000000 0.000000 
-0.005249 0.953163 0.045598 -0.805041 -16.866380 6.570917 0.936934 -1.056477 -18.426019 -2.729594 0.499716 7.440209 1.947791 5.127525 6.937288 0.000000 0.000000 0.000000 -5.514398 0.997603 -10.334485 8.005283 -0.223780 22.652382 -6.064260 -18.448578 17.034736 0.000000 0.000000 0.000000 0.454888 0.030151 29.047732 -8.051372 2.349954 -19.922582 -2.318708 12.056952 26.049195 13.679845 -7.051026 -20.216620 0.000000 0.000000 0.000000 -13.598351 -18.724883 7.902023 -38.477933 -12.881456 -2.439071 -79.826816 -86.898337 81.650497 0.000000 0.000000 0.000000 22.374324 10.839084 6.055330 45.266973 37.348064 7.146388 3.470903 54.707673 5.474808 0.000000 0.000000 0.000000 
-0.008210 0.955673 0.054766 -1.268677 -16.393946 6.666790 1.101555 -1.022579 -17.616974 -2.202630 0.374182 7.154849 1.731552 4.737687 6.775072 0.000000 0.000000 0.000000 -5.915448 1.141605 -12.369390 8.429109 -0.287004 24.620726 -7.054417 -19.608142 14.324840 0.000000 0.000000 0.000000 0.442731 0.008676 29.491045 -7.583973 2.161252 -21.682446 -2.743718 10.901211 27.667481 13.579969 -7.062621 -20.966546 0.000000 0.000000 0.000000 -13.918120 -17.449653 7.580106 -39.667529 -13.166889 -2.605717 -108.082996 -86.654285 110.585699 0.000000 0.000000 0.000000 22.777591 10.926927 5.897400 42.240626 37.544296 6.253188 3.473186 55.338909 5.383484 0.000000 0.000000 0.000000 
